<mxfile host="app.diagrams.net" modified="2023-06-14T07:36:46.313Z" agent="Mozilla/5.0 (Windows NT 10.0; Win64; x64) AppleWebKit/537.36 (KHTML, like Gecko) Chrome/114.0.0.0 Safari/537.36" etag="lgi0URriJ-WUqPKtgJbr" version="21.3.8" type="device">
  <diagram name="Page-1" id="ieH_-hdmL_oxauydxbgl">
    <mxGraphModel dx="2350" dy="824" grid="1" gridSize="12" guides="1" tooltips="1" connect="1" arrows="1" fold="1" page="1" pageScale="1" pageWidth="850" pageHeight="1100" math="0" shadow="0">
      <root>
        <mxCell id="0" />
        <mxCell id="1" parent="0" />
        <mxCell id="MceEFIGmCD1ni36x98ut-1" value="" style="rounded=0;whiteSpace=wrap;html=1;" parent="1" vertex="1">
          <mxGeometry x="-180" y="48" width="1272" height="456" as="geometry" />
        </mxCell>
        <mxCell id="MceEFIGmCD1ni36x98ut-5" value="" style="outlineConnect=0;fontColor=#232F3E;gradientColor=#945DF2;gradientDirection=north;fillColor=#5A30B5;strokeColor=#ffffff;dashed=0;verticalLabelPosition=bottom;verticalAlign=top;align=center;html=1;fontSize=12;fontStyle=0;aspect=fixed;shape=mxgraph.aws4.resourceIcon;resIcon=mxgraph.aws4.route_53;" parent="1" vertex="1">
          <mxGeometry x="270" y="210" width="60" height="60" as="geometry" />
        </mxCell>
        <mxCell id="MceEFIGmCD1ni36x98ut-6" value="Private subnet" style="points=[[0,0],[0.25,0],[0.5,0],[0.75,0],[1,0],[1,0.25],[1,0.5],[1,0.75],[1,1],[0.75,1],[0.5,1],[0.25,1],[0,1],[0,0.75],[0,0.5],[0,0.25]];outlineConnect=0;gradientColor=none;html=1;whiteSpace=wrap;fontSize=12;fontStyle=0;container=1;pointerEvents=0;collapsible=0;recursiveResize=0;shape=mxgraph.aws4.group;grIcon=mxgraph.aws4.group_security_group;grStroke=0;strokeColor=#147EBA;fillColor=#E6F2F8;verticalAlign=top;align=left;spacingLeft=30;fontColor=#147EBA;dashed=0;" parent="1" vertex="1">
          <mxGeometry x="756" y="159" width="270" height="191" as="geometry" />
        </mxCell>
        <mxCell id="MceEFIGmCD1ni36x98ut-2" value="" style="sketch=0;points=[[0,0,0],[0.25,0,0],[0.5,0,0],[0.75,0,0],[1,0,0],[0,1,0],[0.25,1,0],[0.5,1,0],[0.75,1,0],[1,1,0],[0,0.25,0],[0,0.5,0],[0,0.75,0],[1,0.25,0],[1,0.5,0],[1,0.75,0]];outlineConnect=0;fontColor=#232F3E;gradientColor=#F78E04;gradientDirection=north;fillColor=#D05C17;strokeColor=#ffffff;dashed=0;verticalLabelPosition=bottom;verticalAlign=top;align=center;html=1;fontSize=12;fontStyle=0;aspect=fixed;shape=mxgraph.aws4.resourceIcon;resIcon=mxgraph.aws4.ec2;" parent="MceEFIGmCD1ni36x98ut-6" vertex="1">
          <mxGeometry x="94" y="56.5" width="78" height="78" as="geometry" />
        </mxCell>
        <mxCell id="MceEFIGmCD1ni36x98ut-8" value="Public subnet" style="points=[[0,0],[0.25,0],[0.5,0],[0.75,0],[1,0],[1,0.25],[1,0.5],[1,0.75],[1,1],[0.75,1],[0.5,1],[0.25,1],[0,1],[0,0.75],[0,0.5],[0,0.25]];outlineConnect=0;gradientColor=none;html=1;whiteSpace=wrap;fontSize=12;fontStyle=0;container=1;pointerEvents=0;collapsible=0;recursiveResize=0;shape=mxgraph.aws4.group;grIcon=mxgraph.aws4.group_security_group;grStroke=0;strokeColor=#248814;fillColor=#E9F3E6;verticalAlign=top;align=left;spacingLeft=30;fontColor=#248814;dashed=0;" parent="1" vertex="1">
          <mxGeometry x="396" y="85.25" width="328" height="329" as="geometry" />
        </mxCell>
        <mxCell id="MceEFIGmCD1ni36x98ut-3" value="" style="outlineConnect=0;dashed=0;verticalLabelPosition=bottom;verticalAlign=top;align=center;html=1;shape=mxgraph.aws3.application_load_balancer;fillColor=#F58536;gradientColor=none;" parent="MceEFIGmCD1ni36x98ut-8" vertex="1">
          <mxGeometry x="204" y="74.75" width="60" height="61" as="geometry" />
        </mxCell>
        <mxCell id="MceEFIGmCD1ni36x98ut-28" style="edgeStyle=orthogonalEdgeStyle;rounded=0;orthogonalLoop=1;jettySize=auto;html=1;entryX=0;entryY=0.5;entryDx=0;entryDy=0;entryPerimeter=0;" parent="MceEFIGmCD1ni36x98ut-8" source="MceEFIGmCD1ni36x98ut-9" target="MceEFIGmCD1ni36x98ut-3" edge="1">
          <mxGeometry relative="1" as="geometry" />
        </mxCell>
        <mxCell id="MceEFIGmCD1ni36x98ut-9" value="" style="sketch=0;outlineConnect=0;fontColor=#232F3E;gradientColor=none;fillColor=#4D27AA;strokeColor=none;dashed=0;verticalLabelPosition=bottom;verticalAlign=top;align=center;html=1;fontSize=12;fontStyle=0;aspect=fixed;pointerEvents=1;shape=mxgraph.aws4.nat_gateway;" parent="MceEFIGmCD1ni36x98ut-8" vertex="1">
          <mxGeometry x="45" y="124.75" width="58.75" height="58.75" as="geometry" />
        </mxCell>
        <mxCell id="MceEFIGmCD1ni36x98ut-19" value="&lt;b&gt;&lt;font style=&quot;font-size: 17px;&quot;&gt;NAT gateway&lt;/font&gt;&lt;br&gt;&lt;/b&gt;" style="text;strokeColor=none;align=center;fillColor=none;html=1;verticalAlign=middle;whiteSpace=wrap;rounded=0;" parent="MceEFIGmCD1ni36x98ut-8" vertex="1">
          <mxGeometry x="16.369999999999997" y="183.5" width="116" height="41.5" as="geometry" />
        </mxCell>
        <mxCell id="MceEFIGmCD1ni36x98ut-20" value="&lt;b&gt;&lt;font style=&quot;font-size: 17px;&quot;&gt;LoadBalancer-hoangdevops.site&lt;/font&gt;&lt;br&gt;&lt;/b&gt;" style="text;strokeColor=none;align=center;fillColor=none;html=1;verticalAlign=middle;whiteSpace=wrap;rounded=0;" parent="MceEFIGmCD1ni36x98ut-8" vertex="1">
          <mxGeometry x="168" y="135.75" width="132" height="41.5" as="geometry" />
        </mxCell>
        <mxCell id="MceEFIGmCD1ni36x98ut-21" value="&lt;b style=&quot;border-color: var(--border-color);&quot;&gt;&lt;font style=&quot;border-color: var(--border-color); font-size: 17px;&quot;&gt;LoadBalancer-fptproject.site&lt;/font&gt;&lt;/b&gt;&lt;b&gt;&lt;br&gt;&lt;/b&gt;" style="text;strokeColor=none;align=center;fillColor=none;html=1;verticalAlign=middle;whiteSpace=wrap;rounded=0;" parent="MceEFIGmCD1ni36x98ut-8" vertex="1">
          <mxGeometry x="168" y="262.75" width="132" height="41.5" as="geometry" />
        </mxCell>
        <mxCell id="MceEFIGmCD1ni36x98ut-31" style="edgeStyle=orthogonalEdgeStyle;rounded=0;orthogonalLoop=1;jettySize=auto;html=1;entryX=0;entryY=0.75;entryDx=0;entryDy=0;entryPerimeter=0;" parent="1" source="MceEFIGmCD1ni36x98ut-4" target="MceEFIGmCD1ni36x98ut-2" edge="1">
          <mxGeometry relative="1" as="geometry" />
        </mxCell>
        <mxCell id="MceEFIGmCD1ni36x98ut-4" value="" style="outlineConnect=0;dashed=0;verticalLabelPosition=bottom;verticalAlign=top;align=center;html=1;shape=mxgraph.aws3.application_load_balancer;fillColor=#F58536;gradientColor=none;" parent="1" vertex="1">
          <mxGeometry x="600" y="288" width="60" height="60" as="geometry" />
        </mxCell>
        <mxCell id="MceEFIGmCD1ni36x98ut-25" style="edgeStyle=orthogonalEdgeStyle;rounded=0;orthogonalLoop=1;jettySize=auto;html=1;" parent="1" source="MceEFIGmCD1ni36x98ut-10" target="MceEFIGmCD1ni36x98ut-5" edge="1">
          <mxGeometry relative="1" as="geometry" />
        </mxCell>
        <mxCell id="MceEFIGmCD1ni36x98ut-10" value="" style="verticalLabelPosition=bottom;html=1;verticalAlign=top;align=center;strokeColor=none;fillColor=#00BEF2;shape=mxgraph.azure.azure_website;pointerEvents=1;" parent="1" vertex="1">
          <mxGeometry x="130" y="120" width="50" height="50" as="geometry" />
        </mxCell>
        <mxCell id="MceEFIGmCD1ni36x98ut-26" style="edgeStyle=orthogonalEdgeStyle;rounded=0;orthogonalLoop=1;jettySize=auto;html=1;" parent="1" source="MceEFIGmCD1ni36x98ut-11" target="MceEFIGmCD1ni36x98ut-5" edge="1">
          <mxGeometry relative="1" as="geometry">
            <mxPoint x="302" y="276" as="targetPoint" />
            <Array as="points">
              <mxPoint x="302" y="335" />
            </Array>
          </mxGeometry>
        </mxCell>
        <mxCell id="MceEFIGmCD1ni36x98ut-11" value="" style="verticalLabelPosition=bottom;html=1;verticalAlign=top;align=center;strokeColor=none;fillColor=#00BEF2;shape=mxgraph.azure.azure_website;pointerEvents=1;" parent="1" vertex="1">
          <mxGeometry x="130" y="310" width="50" height="50" as="geometry" />
        </mxCell>
        <mxCell id="MceEFIGmCD1ni36x98ut-14" value="" style="html=1;verticalLabelPosition=bottom;align=center;labelBackgroundColor=#ffffff;verticalAlign=top;strokeWidth=2;strokeColor=#0080F0;shadow=0;dashed=0;shape=mxgraph.ios7.icons.cloud;" parent="1" vertex="1">
          <mxGeometry x="-160" y="190.5" width="190" height="99.5" as="geometry" />
        </mxCell>
        <mxCell id="MceEFIGmCD1ni36x98ut-12" value="" style="sketch=0;outlineConnect=0;fontColor=#232F3E;gradientColor=none;fillColor=#232F3D;strokeColor=none;dashed=0;verticalLabelPosition=bottom;verticalAlign=top;align=center;html=1;fontSize=12;fontStyle=0;aspect=fixed;pointerEvents=1;shape=mxgraph.aws4.client;" parent="1" vertex="1">
          <mxGeometry x="-69.99999999999999" y="226.5" width="57.47" height="56" as="geometry" />
        </mxCell>
        <mxCell id="MceEFIGmCD1ni36x98ut-13" value="" style="sketch=0;outlineConnect=0;fontColor=#232F3E;gradientColor=none;fillColor=#232F3D;strokeColor=none;dashed=0;verticalLabelPosition=bottom;verticalAlign=top;align=center;html=1;fontSize=12;fontStyle=0;aspect=fixed;pointerEvents=1;shape=mxgraph.aws4.mobile_client;" parent="1" vertex="1">
          <mxGeometry x="-110" y="222" width="35.74" height="68" as="geometry" />
        </mxCell>
        <mxCell id="MceEFIGmCD1ni36x98ut-15" value="&lt;b&gt;https://hoangdevops.site/&lt;/b&gt;" style="text;strokeColor=none;align=center;fillColor=none;html=1;verticalAlign=middle;whiteSpace=wrap;rounded=0;" parent="1" vertex="1">
          <mxGeometry x="62.5" y="159" width="185" height="39.5" as="geometry" />
        </mxCell>
        <mxCell id="MceEFIGmCD1ni36x98ut-16" value="&lt;b&gt;https://fptproject.site/&lt;/b&gt;" style="text;strokeColor=none;align=center;fillColor=none;html=1;verticalAlign=middle;whiteSpace=wrap;rounded=0;" parent="1" vertex="1">
          <mxGeometry x="62.5" y="350" width="185" height="39.5" as="geometry" />
        </mxCell>
        <mxCell id="MceEFIGmCD1ni36x98ut-18" value="&lt;b&gt;&lt;font style=&quot;font-size: 17px;&quot;&gt;DNS&lt;/font&gt;&lt;br&gt;&lt;/b&gt;" style="text;strokeColor=none;align=center;fillColor=none;html=1;verticalAlign=middle;whiteSpace=wrap;rounded=0;" parent="1" vertex="1">
          <mxGeometry x="213.5" y="226.5" width="56.5" height="41.5" as="geometry" />
        </mxCell>
        <mxCell id="MceEFIGmCD1ni36x98ut-22" value="&lt;b&gt;&lt;span style=&quot;font-size: 17px;&quot;&gt;Apache Server&lt;/span&gt;&lt;br&gt;&lt;/b&gt;" style="text;strokeColor=none;align=center;fillColor=none;html=1;verticalAlign=middle;whiteSpace=wrap;rounded=0;" parent="1" vertex="1">
          <mxGeometry x="825" y="288" width="132" height="41.5" as="geometry" />
        </mxCell>
        <mxCell id="MceEFIGmCD1ni36x98ut-23" value="" style="curved=1;endArrow=classic;html=1;rounded=0;entryX=0;entryY=0.5;entryDx=0;entryDy=0;entryPerimeter=0;" parent="1" target="MceEFIGmCD1ni36x98ut-10" edge="1">
          <mxGeometry width="50" height="50" relative="1" as="geometry">
            <mxPoint y="218" as="sourcePoint" />
            <mxPoint x="50" y="168" as="targetPoint" />
            <Array as="points">
              <mxPoint x="50" y="218" />
              <mxPoint y="168" />
            </Array>
          </mxGeometry>
        </mxCell>
        <mxCell id="MceEFIGmCD1ni36x98ut-24" value="" style="curved=1;endArrow=classic;html=1;rounded=0;exitX=0.798;exitY=0.994;exitDx=0;exitDy=0;exitPerimeter=0;entryX=0;entryY=0.5;entryDx=0;entryDy=0;entryPerimeter=0;" parent="1" source="MceEFIGmCD1ni36x98ut-14" target="MceEFIGmCD1ni36x98ut-11" edge="1">
          <mxGeometry width="50" height="50" relative="1" as="geometry">
            <mxPoint x="36" y="314" as="sourcePoint" />
            <mxPoint x="86" y="264" as="targetPoint" />
            <Array as="points">
              <mxPoint x="86" y="314" />
              <mxPoint x="36" y="264" />
              <mxPoint x="108" y="288" />
            </Array>
          </mxGeometry>
        </mxCell>
        <mxCell id="MceEFIGmCD1ni36x98ut-27" style="edgeStyle=orthogonalEdgeStyle;rounded=0;orthogonalLoop=1;jettySize=auto;html=1;" parent="1" source="MceEFIGmCD1ni36x98ut-5" target="MceEFIGmCD1ni36x98ut-9" edge="1">
          <mxGeometry relative="1" as="geometry" />
        </mxCell>
        <mxCell id="MceEFIGmCD1ni36x98ut-29" style="edgeStyle=orthogonalEdgeStyle;rounded=0;orthogonalLoop=1;jettySize=auto;html=1;entryX=0;entryY=0.5;entryDx=0;entryDy=0;entryPerimeter=0;" parent="1" source="MceEFIGmCD1ni36x98ut-9" target="MceEFIGmCD1ni36x98ut-4" edge="1">
          <mxGeometry relative="1" as="geometry" />
        </mxCell>
        <mxCell id="MceEFIGmCD1ni36x98ut-30" style="edgeStyle=orthogonalEdgeStyle;rounded=0;orthogonalLoop=1;jettySize=auto;html=1;entryX=0;entryY=0.25;entryDx=0;entryDy=0;entryPerimeter=0;" parent="1" source="MceEFIGmCD1ni36x98ut-3" target="MceEFIGmCD1ni36x98ut-2" edge="1">
          <mxGeometry relative="1" as="geometry" />
        </mxCell>
        <mxCell id="MceEFIGmCD1ni36x98ut-32" value="&lt;div style=&quot;text-align: left;&quot;&gt;&lt;b style=&quot;background-color: initial; border-color: var(--border-color); font-size: 14px;&quot;&gt;&lt;font style=&quot;border-color: var(--border-color);&quot;&gt;Inbound Private Subnet:&lt;/font&gt;&lt;/b&gt;&lt;/div&gt;&lt;span style=&quot;font-size: 14px;&quot;&gt;&lt;div style=&quot;text-align: left;&quot;&gt;&lt;span style=&quot;background-color: initial;&quot;&gt;Rule1: Allow list ip LoadBalancer port 80&lt;/span&gt;&lt;/div&gt;&lt;font style=&quot;font-size: 14px;&quot;&gt;&lt;div style=&quot;text-align: left;&quot;&gt;&lt;span style=&quot;background-color: initial;&quot;&gt;Rule2: Allow list ip Dev port 22&lt;/span&gt;&lt;/div&gt;&lt;div style=&quot;text-align: left;&quot;&gt;&lt;span style=&quot;background-color: initial;&quot;&gt;Rule3: Deny ALL&lt;/span&gt;&lt;/div&gt;&lt;div style=&quot;text-align: left;&quot;&gt;&lt;b style=&quot;font-weight: bold; background-color: initial;&quot;&gt;Outbound: &lt;/b&gt;&lt;span style=&quot;background-color: initial;&quot;&gt;Permit All traffic go ou&lt;/span&gt;&lt;span style=&quot;background-color: initial;&quot;&gt;t&lt;/span&gt;&lt;/div&gt;&lt;/font&gt;&lt;/span&gt;" style="text;strokeColor=none;align=center;fillColor=none;html=1;verticalAlign=middle;whiteSpace=wrap;rounded=0;" parent="1" vertex="1">
          <mxGeometry x="768" y="350" width="258" height="102.5" as="geometry" />
        </mxCell>
        <mxCell id="MceEFIGmCD1ni36x98ut-34" value="&lt;div style=&quot;text-align: left;&quot;&gt;&lt;b style=&quot;background-color: initial; border-color: var(--border-color); font-size: 14px;&quot;&gt;&lt;font style=&quot;border-color: var(--border-color);&quot;&gt;Inbound PublicSubnet:&lt;/font&gt;&lt;/b&gt;&lt;/div&gt;&lt;span style=&quot;font-size: 14px;&quot;&gt;&lt;div style=&quot;text-align: left;&quot;&gt;&lt;span style=&quot;background-color: initial;&quot;&gt;Rule1: Allow list ip Global region VietNam&lt;/span&gt;&lt;/div&gt;&lt;font style=&quot;font-size: 14px;&quot;&gt;&lt;div style=&quot;text-align: left;&quot;&gt;&lt;span style=&quot;background-color: initial;&quot;&gt;Rule2: Allow Rule1 port 443/80&lt;/span&gt;&lt;/div&gt;&lt;div style=&quot;text-align: left;&quot;&gt;&lt;span style=&quot;background-color: initial;&quot;&gt;Rule3: Deny ALL&lt;/span&gt;&lt;/div&gt;&lt;div style=&quot;text-align: left;&quot;&gt;&lt;b style=&quot;font-weight: bold; background-color: initial;&quot;&gt;Outbound: &lt;/b&gt;&lt;span style=&quot;background-color: initial;&quot;&gt;Permit All traffic go ou&lt;/span&gt;&lt;span style=&quot;background-color: initial;&quot;&gt;t&lt;/span&gt;&lt;/div&gt;&lt;/font&gt;&lt;/span&gt;" style="text;strokeColor=none;align=center;fillColor=none;html=1;verticalAlign=middle;whiteSpace=wrap;rounded=0;" parent="1" vertex="1">
          <mxGeometry x="425" y="401.5" width="264" height="102.5" as="geometry" />
        </mxCell>
      </root>
    </mxGraphModel>
  </diagram>
</mxfile>
